<svg width="193" height="200" viewBox="0 0 193 200" fill="none" xmlns="http://www.w3.org/2000/svg">
<g opacity="0.81" filter="url(#filter0_di_36_186)">
<rect x="69" y="51" width="40" height="40" rx="5" fill="black"/>
<rect x="69.5" y="51.5" width="39" height="39" rx="4.5" stroke="#2A2828"/>
</g>
<path d="M84.4442 78.2045C83.4982 78.2045 82.6822 77.9957 81.9961 77.5781C81.3143 77.1562 80.788 76.5682 80.4172 75.8139C80.0508 75.0554 79.8675 74.1733 79.8675 73.1676C79.8675 72.1619 80.0508 71.2756 80.4172 70.5085C80.788 69.7372 81.3036 69.1364 81.9641 68.706C82.6289 68.2713 83.4045 68.054 84.2908 68.054C84.8022 68.054 85.3072 68.1392 85.8057 68.3097C86.3043 68.4801 86.7582 68.7571 87.1672 69.1406C87.5763 69.5199 87.9023 70.0227 88.1452 70.6491C88.3881 71.2756 88.5096 72.0469 88.5096 72.9631V73.6023H80.9414V72.2983H86.9755C86.9755 71.7443 86.8647 71.25 86.6431 70.8153C86.4258 70.3807 86.1147 70.0376 85.7099 69.7862C85.3093 69.5348 84.8363 69.4091 84.2908 69.4091C83.69 69.4091 83.1701 69.5582 82.7312 69.8565C82.2965 70.1506 81.962 70.5341 81.7276 71.0071C81.4932 71.4801 81.376 71.9872 81.376 72.5284V73.3977C81.376 74.1392 81.5039 74.7678 81.7596 75.2834C82.0195 75.7947 82.3796 76.1847 82.8398 76.4531C83.3001 76.7173 83.8349 76.8494 84.4442 76.8494C84.8405 76.8494 85.1985 76.794 85.5181 76.6832C85.842 76.5682 86.1211 76.3977 86.3555 76.1719C86.5898 75.9418 86.7709 75.6562 86.8988 75.3153L88.3562 75.7244C88.2028 76.2188 87.9449 76.6534 87.5827 77.0284C87.2205 77.3991 86.7731 77.6889 86.2404 77.8977C85.7077 78.1023 85.109 78.2045 84.4442 78.2045ZM91.4128 72.0938V78H89.9043V68.1818H91.3617V69.7159H91.4895C91.7197 69.2173 92.0691 68.8168 92.5378 68.5142C93.0066 68.2074 93.6117 68.054 94.3532 68.054C95.018 68.054 95.5996 68.1903 96.0982 68.4631C96.5968 68.7315 96.9846 69.1406 97.2616 69.6903C97.5385 70.2358 97.677 70.9261 97.677 71.7614V78H96.1685V71.8636C96.1685 71.0923 95.9682 70.4915 95.5677 70.0611C95.1671 69.6264 94.6174 69.4091 93.9185 69.4091C93.437 69.4091 93.0066 69.5135 92.6273 69.7223C92.2523 69.9311 91.9562 70.2358 91.7388 70.6364C91.5215 71.0369 91.4128 71.5227 91.4128 72.0938Z" fill="white"/>
<g opacity="0.81" filter="url(#filter1_di_36_186)">
<rect x="24" y="13" width="40" height="40" rx="5" fill="black"/>
<rect x="24.5" y="13.5" width="39" height="39" rx="4.5" stroke="#2A2828"/>
</g>
<path d="M43.659 28.2402C43.448 28.1699 43.1551 28.1348 42.7801 28.1348C42.4051 28.1348 42.1062 28.1699 41.8836 28.2402C41.6668 28.3105 41.4939 28.4131 41.365 28.5479C41.1424 28.7881 41.0311 29.1807 41.0311 29.7256V30.9297H43.2986V32.2744H41.0311V40H39.2732V32.2744H38.1834V31.4482L39.2732 30.9297V29.9629C39.2732 29.3477 39.326 28.8848 39.4314 28.5742C39.5428 28.2637 39.6746 28.0059 39.827 27.8008C39.9793 27.5957 40.1844 27.417 40.4422 27.2646C40.9871 26.9424 41.7518 26.7812 42.7361 26.7812C43.1463 26.7812 43.4539 26.8047 43.659 26.8516V28.2402ZM49.9309 32.5381C49.6086 32.4443 49.2219 32.3975 48.7707 32.3975C48.3254 32.3975 47.9592 32.4443 47.6721 32.5381C47.385 32.626 47.133 32.7344 46.9162 32.8633C46.5178 33.0977 46.2277 33.3613 46.0461 33.6543V40H44.2883V30.9297H45.9758L46.0461 32.1865C46.4855 31.6357 47.1271 31.2227 47.9709 30.9473C48.2756 30.8418 48.6242 30.7891 49.0168 30.7891C49.4094 30.7891 49.7141 30.8184 49.9309 30.877V32.5381Z" fill="white"/>
<g opacity="0.81" filter="url(#filter2_di_36_186)">
<rect x="97" y="152" width="40" height="40" rx="5" fill="black"/>
<rect x="97.5" y="152.5" width="39" height="39" rx="4.5" stroke="#2A2828"/>
</g>
<path d="M108.599 179.951L108.184 178.731C108.516 178.62 108.832 178.504 109.13 178.382C109.429 178.266 109.698 178.15 109.936 178.034C110.744 177.641 111.316 177.226 111.654 176.789C111.991 176.351 112.169 175.928 112.185 175.519L112.169 174.929C112.169 174.713 112.13 174.459 112.052 174.166C111.98 173.867 111.87 173.576 111.72 173.294C111.571 173.012 111.386 172.777 111.164 172.588C110.943 172.4 110.686 172.306 110.392 172.306C110.027 172.306 109.692 172.442 109.388 172.713C109.089 172.984 108.94 173.333 108.94 173.759C108.94 174.135 109.147 174.39 109.562 174.522C109.977 174.655 110.5 174.722 111.131 174.722C111.336 174.722 111.549 174.716 111.77 174.705C111.991 174.694 112.216 174.68 112.443 174.664L112.376 175.801C112.066 175.867 111.778 175.917 111.513 175.95C111.253 175.983 110.998 176 110.749 176C110.284 176 109.855 175.939 109.463 175.817C109.07 175.69 108.754 175.48 108.516 175.187C108.284 174.893 108.165 174.495 108.159 173.991C108.154 173.56 108.248 173.12 108.442 172.671C108.635 172.223 108.912 171.847 109.272 171.542C109.631 171.233 110.055 171.078 110.542 171.078C110.946 171.078 111.297 171.197 111.596 171.435C111.9 171.673 112.149 171.985 112.343 172.373C112.542 172.76 112.692 173.181 112.791 173.634C112.891 174.088 112.941 174.531 112.941 174.962C112.941 175.732 112.811 176.404 112.55 176.979C112.29 177.555 111.936 178.048 111.488 178.457C111.112 178.806 110.677 179.102 110.185 179.345C109.692 179.589 109.164 179.791 108.599 179.951ZM117.087 176.108C116.473 176.108 115.969 176.047 115.576 175.925C115.189 175.798 114.89 175.574 114.68 175.253C114.469 174.926 114.32 174.464 114.231 173.867L114.879 173.526C115.023 174.08 115.297 174.428 115.701 174.572C116.105 174.716 116.6 174.788 117.187 174.788C117.447 174.788 117.74 174.783 118.066 174.771C118.398 174.76 118.683 174.741 118.921 174.713C119.065 174.697 119.168 174.675 119.229 174.647C119.289 174.619 119.32 174.561 119.32 174.473C119.32 174.428 119.312 174.379 119.295 174.323C119.284 174.268 119.265 174.204 119.237 174.132C119.093 173.745 118.874 173.333 118.581 172.896C118.288 172.453 117.961 172.018 117.602 171.592C117.242 171.161 116.891 170.768 116.547 170.414L117.427 169.5C117.82 169.943 118.199 170.419 118.564 170.928C118.93 171.432 119.245 171.946 119.511 172.472C119.782 172.998 119.967 173.507 120.067 174C120.1 174.154 120.117 174.318 120.117 174.489C120.117 174.821 120.059 175.117 119.942 175.377C119.882 175.516 119.799 175.638 119.693 175.743C119.588 175.848 119.467 175.917 119.328 175.95C119.206 175.978 119.016 176.003 118.755 176.025C118.501 176.053 118.224 176.072 117.925 176.083C117.627 176.1 117.347 176.108 117.087 176.108ZM120.121 179.943L119.706 178.723C120.226 178.546 120.738 178.344 121.242 178.117C121.751 177.895 122.174 177.638 122.512 177.345C122.999 176.924 123.242 176.451 123.242 175.925C123.242 175.726 123.209 175.502 123.143 175.253C123.076 175.004 122.993 174.733 122.894 174.439C122.788 174.124 122.644 173.726 122.462 173.244C122.285 172.757 122.105 172.278 121.922 171.808L122.977 171.518C123.126 171.91 123.25 172.267 123.35 172.588C123.455 172.904 123.558 173.244 123.657 173.609C123.757 173.98 123.843 174.354 123.915 174.73C123.986 175.101 124.022 175.477 124.022 175.859C124.022 176.54 123.892 177.115 123.632 177.585C123.372 178.061 122.999 178.476 122.512 178.831C122.191 179.063 121.825 179.273 121.416 179.461C121.006 179.655 120.575 179.816 120.121 179.943ZM125.795 176C125.673 174.655 125.524 173.244 125.347 171.767C125.169 170.284 124.981 168.823 124.782 167.384L125.853 167.301C126.019 168.845 126.168 170.311 126.301 171.7C126.434 173.084 126.556 174.517 126.666 176H125.795Z" fill="white"/>
<g opacity="0.81" filter="url(#filter3_di_36_186)">
<rect x="103" y="98" width="40" height="40" rx="5" fill="black"/>
<rect x="103.5" y="98.5" width="39" height="39" rx="4.5" stroke="#2A2828"/>
</g>
<path d="M115.728 113.102H130.236V121.562H128.85V114.416H117.078V121.652H115.728V113.102ZM116.448 119.204H129.66V120.536H116.448V119.204ZM122.244 109.88H123.666V126.422H122.244V109.88Z" fill="white"/>
<g opacity="0.81" filter="url(#filter4_di_36_186)">
<rect x="118" y="43" width="40" height="40" rx="5" fill="black"/>
<rect x="118.5" y="43.5" width="39" height="39" rx="4.5" stroke="#2A2828"/>
</g>
<path d="M139.039 63.375H132.957C132.892 63.3984 132.854 63.4248 132.843 63.4541C132.831 63.4775 132.819 63.5273 132.807 63.6035C132.796 63.6562 132.784 63.7705 132.772 63.9463C132.766 64.1221 132.763 64.3213 132.763 64.5439C132.763 64.7666 132.79 64.9805 132.843 65.1855C132.895 65.3906 132.954 65.5928 133.018 65.792C133.264 66.5186 133.648 67.0723 134.17 67.4531C134.697 67.834 135.388 68.0244 136.244 68.0244C136.373 68.0244 136.513 68.001 136.666 67.9541C136.818 67.9072 136.971 67.8486 137.123 67.7783C137.275 67.7021 137.422 67.6143 137.562 67.5146C137.703 67.415 137.826 67.3125 137.931 67.207C138.008 67.1367 138.069 67.0576 138.116 66.9697C138.169 66.876 138.233 66.7617 138.309 66.627C138.333 66.6035 138.365 66.5859 138.406 66.5742C138.447 66.5566 138.482 66.5479 138.512 66.5479C138.617 66.5479 138.687 66.583 138.722 66.6533C138.763 66.7178 138.784 66.7998 138.784 66.8994C138.784 66.9287 138.772 66.9697 138.749 67.0225C138.731 67.0693 138.708 67.1191 138.679 67.1719C138.655 67.2246 138.626 67.2773 138.591 67.3301C138.561 67.377 138.538 67.4121 138.52 67.4355C138.298 67.7695 138.016 68.0654 137.677 68.3232C137.337 68.5752 136.929 68.7803 136.455 68.9385C136.349 68.9678 136.168 68.9912 135.91 69.0088C135.658 69.0322 135.383 69.0439 135.084 69.0439C134.82 69.0439 134.548 69.0088 134.266 68.9385C133.991 68.8682 133.721 68.7686 133.458 68.6396C133.194 68.5107 132.948 68.3613 132.72 68.1914C132.497 68.0215 132.312 67.834 132.166 67.6289C131.849 67.1953 131.615 66.7559 131.463 66.3105C131.316 65.8652 131.243 65.3672 131.243 64.8164C131.243 64.6172 131.252 64.4297 131.269 64.2539C131.293 64.0723 131.328 63.8965 131.375 63.7266C131.428 63.5566 131.492 63.3896 131.568 63.2256C131.644 63.0557 131.738 62.8828 131.849 62.707C132.043 62.3848 132.262 62.0889 132.509 61.8193C132.755 61.5498 133.027 61.3184 133.326 61.125C133.625 60.9316 133.947 60.7822 134.293 60.6768C134.638 60.5713 135.011 60.5186 135.409 60.5186C135.743 60.5186 136.089 60.5537 136.446 60.624C136.809 60.6885 137.158 60.835 137.492 61.0635C137.597 61.1396 137.744 61.2568 137.931 61.415C138.119 61.5732 138.304 61.752 138.485 61.9512C138.667 62.1445 138.825 62.3496 138.96 62.5664C139.095 62.7832 139.162 62.9912 139.162 63.1904C139.162 63.2432 139.15 63.2871 139.127 63.3223C139.109 63.3574 139.08 63.375 139.039 63.375ZM133.185 62.9004H137.096C137.196 62.9004 137.255 62.8887 137.272 62.8652C137.296 62.8359 137.307 62.8066 137.307 62.7773C137.307 62.6426 137.272 62.502 137.202 62.3555C137.137 62.209 137.055 62.0713 136.956 61.9424C136.862 61.8076 136.765 61.6875 136.666 61.582C136.566 61.4766 136.481 61.3945 136.411 61.3359C136.223 61.1777 136.036 61.0752 135.848 61.0283C135.661 60.9814 135.447 60.958 135.207 60.958C135.107 60.958 135.013 60.9609 134.926 60.9668C134.844 60.9668 134.762 60.9727 134.679 60.9844C134.597 60.9961 134.515 61.0137 134.433 61.0371C134.351 61.0605 134.261 61.0957 134.161 61.1426C134.05 61.1953 133.927 61.2803 133.792 61.3975C133.663 61.5088 133.54 61.6406 133.423 61.793C133.311 61.9395 133.215 62.1006 133.133 62.2764C133.056 62.4521 133.018 62.625 133.018 62.7949C133.018 62.8652 133.074 62.9004 133.185 62.9004ZM139.361 67.7344C139.361 67.5762 139.396 67.4209 139.466 67.2686C139.542 67.1104 139.598 66.9639 139.633 66.8291C139.633 66.8057 139.639 66.7588 139.651 66.6885C139.668 66.6123 139.686 66.5332 139.703 66.4512C139.727 66.3633 139.747 66.2842 139.765 66.2139C139.782 66.1436 139.794 66.0938 139.8 66.0645C139.818 65.9824 139.859 65.9414 139.923 65.9414C140.017 65.9414 140.067 65.9971 140.072 66.1084C140.084 66.1904 140.087 66.2695 140.081 66.3457C140.081 66.416 140.09 66.501 140.108 66.6006C140.16 66.876 140.234 67.1367 140.327 67.3828C140.427 67.623 140.553 67.8369 140.705 68.0244C140.863 68.2119 141.051 68.3613 141.268 68.4727C141.49 68.5781 141.751 68.6309 142.05 68.6309C142.267 68.6309 142.475 68.5986 142.674 68.5342C142.873 68.4639 143.049 68.3672 143.201 68.2441C143.36 68.1211 143.483 67.9688 143.571 67.7871C143.664 67.6055 143.711 67.4004 143.711 67.1719C143.711 66.8145 143.647 66.5215 143.518 66.293C143.395 66.0645 143.231 65.874 143.026 65.7217C142.826 65.5693 142.595 65.4463 142.331 65.3525C142.073 65.2529 141.807 65.1592 141.531 65.0713C141.262 64.9775 140.995 64.8779 140.732 64.7725C140.474 64.6611 140.242 64.5176 140.037 64.3418C139.838 64.1602 139.674 63.9346 139.545 63.665C139.422 63.3955 139.361 63.0557 139.361 62.6455C139.361 62.3936 139.404 62.1768 139.492 61.9951C139.58 61.8076 139.659 61.6582 139.73 61.5469C139.818 61.4121 139.929 61.2773 140.064 61.1426C140.198 61.002 140.354 60.8789 140.529 60.7734C140.705 60.6621 140.902 60.5713 141.118 60.501C141.341 60.4307 141.581 60.3955 141.839 60.3955C142.068 60.3955 142.314 60.4424 142.577 60.5361C142.847 60.624 143.081 60.75 143.28 60.9141C143.345 60.9668 143.409 61.0254 143.474 61.0898C143.538 61.1543 143.603 61.1865 143.667 61.1865C143.749 61.1865 143.817 61.1602 143.869 61.1074C143.922 61.0488 143.975 60.9727 144.028 60.8789C144.039 60.8672 144.051 60.8613 144.063 60.8613C144.08 60.8555 144.095 60.8525 144.107 60.8525C144.124 60.8525 144.136 60.8701 144.142 60.9053C144.154 60.9346 144.162 60.9697 144.168 61.0107C144.18 61.0459 144.186 61.084 144.186 61.125C144.192 61.1602 144.195 61.1865 144.195 61.2041C144.195 61.2217 144.186 61.2803 144.168 61.3799C144.156 61.4795 144.136 61.5996 144.107 61.7402C144.083 61.875 144.054 62.0215 144.019 62.1797C143.989 62.332 143.954 62.4756 143.913 62.6104C143.878 62.7393 143.84 62.8477 143.799 62.9355C143.764 63.0234 143.729 63.0674 143.694 63.0674C143.682 63.0674 143.67 63.0645 143.658 63.0586C143.635 63.0469 143.623 63.0352 143.623 63.0234C143.576 62.9414 143.544 62.8711 143.527 62.8125C143.509 62.7539 143.494 62.6982 143.483 62.6455C143.477 62.5928 143.471 62.54 143.465 62.4873C143.465 62.4287 143.456 62.3643 143.439 62.2939C143.427 62.2471 143.415 62.2031 143.404 62.1621C143.392 62.1152 143.377 62.0742 143.36 62.0391C143.283 61.8457 143.204 61.6875 143.122 61.5645C143.04 61.4414 142.926 61.3154 142.779 61.1865C142.68 61.0869 142.589 61.0107 142.507 60.958C142.431 60.8994 142.349 60.8584 142.261 60.835C142.173 60.8057 142.071 60.7881 141.953 60.7822C141.836 60.7764 141.693 60.7734 141.523 60.7734C141.359 60.7734 141.206 60.8115 141.066 60.8877C140.931 60.958 140.814 61.0547 140.714 61.1777C140.614 61.3008 140.535 61.4443 140.477 61.6084C140.424 61.7666 140.398 61.9336 140.398 62.1094C140.398 62.4023 140.459 62.6426 140.582 62.8301C140.711 63.0117 140.878 63.167 141.083 63.2959C141.294 63.4189 141.531 63.5244 141.795 63.6123C142.059 63.7002 142.325 63.791 142.595 63.8848C142.87 63.9785 143.14 64.0898 143.404 64.2188C143.667 64.3418 143.902 64.5059 144.107 64.7109C144.318 64.9102 144.485 65.1621 144.608 65.4668C144.737 65.7656 144.801 66.1377 144.801 66.583C144.801 66.876 144.725 67.1719 144.572 67.4707C144.42 67.7637 144.233 68.0391 144.01 68.2969C143.91 68.4141 143.776 68.5225 143.606 68.6221C143.442 68.7158 143.257 68.7979 143.052 68.8682C142.853 68.9385 142.642 68.9912 142.419 69.0264C142.202 69.0674 141.988 69.0879 141.778 69.0879C141.567 69.0879 141.323 69.041 141.048 68.9473C140.773 68.8535 140.509 68.7363 140.257 68.5957C140.005 68.4551 139.791 68.3086 139.615 68.1562C139.446 67.998 139.361 67.8574 139.361 67.7344Z" fill="white"/>
<g opacity="0.81" filter="url(#filter5_di_36_186)">
<rect x="86" width="40" height="40" rx="5" fill="black"/>
<rect x="86.5" y="0.5" width="39" height="39" rx="4.5" stroke="#2A2828"/>
</g>
<path d="M110.098 24.842L108.532 26.66H107.65C106.03 26.66 104.83 26.33 104.05 25.67C103.606 25.298 103.258 24.842 103.006 24.302C102.754 23.774 102.628 23.168 102.628 22.484C102.628 21.596 102.838 20.792 103.258 20.072C103.582 19.508 104.02 18.992 104.572 18.524C104.14 18.14 103.828 17.726 103.636 17.282C103.468 16.91 103.384 16.484 103.384 16.004C103.516 15.464 103.702 14.996 103.942 14.6C104.458 13.808 105.136 13.412 105.976 13.412C106.504 13.412 106.984 13.562 107.416 13.862C107.62 14.018 107.8 14.186 107.956 14.366C108.112 14.546 108.268 14.774 108.424 15.05L107.902 15.716C107.542 15.464 107.23 15.284 106.966 15.176C106.702 15.068 106.402 15.014 106.066 15.014C105.622 15.014 105.256 15.098 104.968 15.266C104.692 15.434 104.476 15.602 104.32 15.77C104.584 16.154 104.896 16.49 105.256 16.778C105.376 16.874 105.538 16.988 105.742 17.12C105.946 17.252 106.126 17.36 106.282 17.444L109.468 16.67L108.64 18.524C108.544 18.548 108.286 18.62 107.866 18.74C107.446 18.848 107.008 18.992 106.552 19.172C106.108 19.34 105.712 19.532 105.364 19.748C104.26 20.42 103.708 21.26 103.708 22.268C103.708 22.64 103.828 22.994 104.068 23.33C104.32 23.666 104.68 23.954 105.148 24.194C105.988 24.626 107.122 24.842 108.55 24.842H110.098Z" fill="white"/>
<g opacity="0.81" filter="url(#filter6_di_36_186)">
<rect x="8" y="143" width="40" height="40" rx="5" fill="black"/>
<rect x="8.5" y="143.5" width="39" height="39" rx="4.5" stroke="#2A2828"/>
</g>
<path d="M27.496 155.744C27.448 155.852 27.406 155.984 27.37 156.14C27.346 156.284 27.316 156.422 27.28 156.554C27.184 157.046 27.088 157.67 26.992 158.426C26.896 159.182 26.818 159.992 26.758 160.856C26.698 161.708 26.668 162.548 26.668 163.376C26.668 164.144 26.716 164.894 26.812 165.626C26.92 166.358 27.052 167.06 27.208 167.732C27.376 168.392 27.55 169.004 27.73 169.568L26.434 169.964C26.254 169.424 26.086 168.8 25.93 168.092C25.774 167.372 25.648 166.622 25.552 165.842C25.456 165.05 25.408 164.276 25.408 163.52C25.408 162.896 25.426 162.26 25.462 161.612C25.51 160.964 25.564 160.334 25.624 159.722C25.684 159.098 25.738 158.516 25.786 157.976C25.846 157.436 25.9 156.968 25.948 156.572C25.96 156.416 25.972 156.26 25.984 156.104C25.996 155.948 25.996 155.816 25.984 155.708L27.496 155.744ZM24.58 157.976C25.636 157.976 26.68 157.946 27.712 157.886C28.744 157.826 29.734 157.736 30.682 157.616C31.642 157.496 32.542 157.34 33.382 157.148L33.4 158.48C32.752 158.588 32.05 158.69 31.294 158.786C30.55 158.87 29.788 158.948 29.008 159.02C28.228 159.08 27.46 159.128 26.704 159.164C25.948 159.2 25.234 159.218 24.562 159.218C24.31 159.218 24.004 159.212 23.644 159.2C23.284 159.176 22.924 159.158 22.564 159.146C22.204 159.122 21.898 159.104 21.646 159.092L21.61 157.742C21.826 157.778 22.12 157.814 22.492 157.85C22.864 157.886 23.242 157.916 23.626 157.94C24.01 157.964 24.328 157.976 24.58 157.976ZM32.086 160.082C32.05 160.154 32.008 160.256 31.96 160.388C31.924 160.508 31.882 160.634 31.834 160.766C31.798 160.886 31.762 161 31.726 161.108C31.366 162.212 30.934 163.226 30.43 164.15C29.926 165.062 29.38 165.878 28.792 166.598C28.204 167.306 27.598 167.9 26.974 168.38C26.386 168.824 25.75 169.196 25.066 169.496C24.382 169.796 23.722 169.946 23.086 169.946C22.702 169.946 22.348 169.862 22.024 169.694C21.7 169.526 21.442 169.274 21.25 168.938C21.058 168.602 20.962 168.182 20.962 167.678C20.962 167.066 21.094 166.46 21.358 165.86C21.622 165.248 21.982 164.672 22.438 164.132C22.906 163.592 23.434 163.112 24.022 162.692C24.622 162.26 25.258 161.912 25.93 161.648C26.518 161.432 27.154 161.258 27.838 161.126C28.534 160.994 29.17 160.928 29.746 160.928C30.886 160.928 31.87 161.126 32.698 161.522C33.526 161.918 34.162 162.458 34.606 163.142C35.062 163.814 35.29 164.57 35.29 165.41C35.29 166.058 35.176 166.676 34.948 167.264C34.732 167.852 34.384 168.392 33.904 168.884C33.436 169.364 32.83 169.778 32.086 170.126C31.342 170.474 30.448 170.732 29.404 170.9L28.63 169.694C29.722 169.586 30.658 169.334 31.438 168.938C32.218 168.542 32.824 168.038 33.256 167.426C33.688 166.814 33.904 166.118 33.904 165.338C33.904 164.75 33.742 164.21 33.418 163.718C33.094 163.226 32.62 162.83 31.996 162.53C31.384 162.218 30.628 162.062 29.728 162.062C28.972 162.062 28.27 162.152 27.622 162.332C26.986 162.512 26.44 162.704 25.984 162.908C25.312 163.208 24.694 163.61 24.13 164.114C23.578 164.618 23.14 165.164 22.816 165.752C22.492 166.328 22.33 166.892 22.33 167.444C22.33 167.816 22.414 168.098 22.582 168.29C22.762 168.47 23.02 168.56 23.356 168.56C23.8 168.56 24.298 168.434 24.85 168.182C25.414 167.93 25.99 167.546 26.578 167.03C27.382 166.334 28.126 165.482 28.81 164.474C29.506 163.466 30.058 162.23 30.466 160.766C30.49 160.67 30.514 160.562 30.538 160.442C30.562 160.322 30.586 160.196 30.61 160.064C30.646 159.932 30.664 159.818 30.664 159.722L32.086 160.082Z" fill="white"/>
<g opacity="0.81" filter="url(#filter7_di_36_186)">
<rect x="19" y="73" width="40" height="40" rx="5" fill="black"/>
<rect x="19.5" y="73.5" width="39" height="39" rx="4.5" stroke="#2A2828"/>
</g>
<path d="M35.3996 90.082V100H33.9416V90.082H32.3396V88.804H33.8156C33.4916 88.192 33.2936 87.562 33.2936 86.842C33.2936 85.024 34.6976 83.872 37.0376 83.872C40.3856 83.872 43.1216 85.744 44.9576 88.93H43.4456C41.9516 86.554 39.7196 85.15 37.2716 85.15C35.6876 85.15 34.7516 85.888 34.7516 87.112C34.7516 87.778 34.9856 88.3 35.2916 88.804H37.2536V90.082H35.3996ZM42.0919 98.848C42.9379 98.488 43.3879 97.948 43.3879 97.372C43.3879 96.58 42.7939 96.004 41.3359 96.004C39.6799 96.004 38.7799 96.742 38.7799 97.948C38.7799 99.388 40.3279 100.27 42.9919 101.332L42.2719 102.556C39.4639 101.422 37.3399 100.162 37.3399 97.894C37.3399 96.886 37.7359 96.112 38.4019 95.59C37.7539 95.014 37.3399 94.402 37.3399 93.628C37.3399 92.332 38.2399 91.63 40.1119 91.63H42.5959V90.082H36.0979V88.804H45.9079V90.082H44.0539V92.908H40.3099C39.2479 92.908 38.7799 93.214 38.7799 93.862C38.7799 94.312 39.1219 94.762 39.4819 95.014C40.0399 94.816 40.6879 94.726 41.3719 94.726C43.8199 94.726 44.8099 95.95 44.8099 97.39C44.8099 98.398 44.3779 99.226 43.1179 99.892L42.0919 98.848Z" fill="white"/>
<g opacity="0.81" filter="url(#filter8_di_36_186)">
<rect x="153" y="91" width="40" height="40" rx="5" fill="black"/>
<rect x="153.5" y="91.5" width="39" height="39" rx="4.5" stroke="#2A2828"/>
</g>
<path d="M176.763 103.132H178.257V115.336H176.763V103.132ZM177.789 108.478H180.651V109.72H177.789V108.478ZM165.657 105.112H175.269V106.318H165.657V105.112ZM170.463 107.2C171.231 107.2 171.909 107.332 172.497 107.596C173.085 107.848 173.541 108.202 173.865 108.658C174.189 109.102 174.351 109.63 174.351 110.242C174.351 110.854 174.189 111.388 173.865 111.844C173.541 112.288 173.085 112.636 172.497 112.888C171.909 113.14 171.231 113.266 170.463 113.266C169.695 113.266 169.017 113.14 168.429 112.888C167.841 112.636 167.379 112.288 167.043 111.844C166.719 111.388 166.557 110.854 166.557 110.242C166.557 109.63 166.719 109.102 167.043 108.658C167.379 108.202 167.841 107.848 168.429 107.596C169.017 107.332 169.695 107.2 170.463 107.2ZM170.463 108.37C169.731 108.37 169.137 108.544 168.681 108.892C168.225 109.228 167.997 109.678 167.997 110.242C167.997 110.806 168.225 111.256 168.681 111.592C169.137 111.928 169.731 112.096 170.463 112.096C171.207 112.096 171.801 111.928 172.245 111.592C172.701 111.256 172.929 110.806 172.929 110.242C172.929 109.678 172.701 109.228 172.245 108.892C171.801 108.544 171.207 108.37 170.463 108.37ZM169.725 103.132H171.219V105.724H169.725V103.132ZM168.123 117.82H178.977V119.044H168.123V117.82ZM168.123 114.364H169.599V118.324H168.123V114.364Z" fill="white"/>
<g opacity="0.81" filter="url(#filter9_di_36_186)">
<rect x="55" y="119" width="40" height="40" rx="5" fill="black"/>
<rect x="55.5" y="119.5" width="39" height="39" rx="4.5" stroke="#2A2828"/>
</g>
<path d="M78.606 134.804V136.082H76.716V146H75.33C74.97 145.28 74.472 144.62 73.836 144.02C73.212 143.408 72.492 142.892 71.676 142.472C70.86 142.052 69.99 141.77 69.066 141.626L68.364 139.898C69.516 139.202 70.704 138.572 71.928 138.008C73.164 137.444 74.436 136.964 75.744 136.568L75.33 137.324V136.082H67.518V134.804H78.606ZM75.33 137.468L75.708 137.972C74.796 138.272 73.836 138.644 72.828 139.088C71.82 139.52 70.89 140 70.038 140.528C70.686 140.672 71.376 140.918 72.108 141.266C72.84 141.614 73.518 142.052 74.142 142.58C74.766 143.108 75.246 143.72 75.582 144.416H75.42C75.396 144.14 75.372 143.864 75.348 143.588C75.336 143.312 75.33 142.982 75.33 142.598V137.468ZM82.4887 134.804V136.082H80.5987V146H79.2127V137.558C79.0687 137.15 78.8527 136.802 78.5647 136.514C78.2887 136.226 77.9287 136.082 77.4847 136.082H77.3407V134.804H77.6107C77.8987 134.804 78.1987 134.9 78.5107 135.092C78.8227 135.272 79.0747 135.554 79.2667 135.938C79.2547 135.878 79.2427 135.74 79.2307 135.524C79.2187 135.308 79.2127 135.122 79.2127 134.966V133.616H80.1847L80.5807 134.804H82.4887Z" fill="white"/>
<defs>
<filter id="filter0_di_36_186" x="61" y="51" width="50" height="48" filterUnits="userSpaceOnUse" color-interpolation-filters="sRGB">
<feFlood flood-opacity="0" result="BackgroundImageFix"/>
<feColorMatrix in="SourceAlpha" type="matrix" values="0 0 0 0 0 0 0 0 0 0 0 0 0 0 0 0 0 0 127 0" result="hardAlpha"/>
<feOffset dx="-4" dy="4"/>
<feGaussianBlur stdDeviation="2"/>
<feComposite in2="hardAlpha" operator="out"/>
<feColorMatrix type="matrix" values="0 0 0 0 0.121569 0 0 0 0 0.121569 0 0 0 0 0.121569 0 0 0 0.25 0"/>
<feBlend mode="normal" in2="BackgroundImageFix" result="effect1_dropShadow_36_186"/>
<feBlend mode="normal" in="SourceGraphic" in2="effect1_dropShadow_36_186" result="shape"/>
<feColorMatrix in="SourceAlpha" type="matrix" values="0 0 0 0 0 0 0 0 0 0 0 0 0 0 0 0 0 0 127 0" result="hardAlpha"/>
<feOffset dx="2" dy="2"/>
<feGaussianBlur stdDeviation="2"/>
<feComposite in2="hardAlpha" operator="arithmetic" k2="-1" k3="1"/>
<feColorMatrix type="matrix" values="0 0 0 0 1 0 0 0 0 1 0 0 0 0 1 0 0 0 0.15 0"/>
<feBlend mode="normal" in2="shape" result="effect2_innerShadow_36_186"/>
</filter>
<filter id="filter1_di_36_186" x="16" y="13" width="50" height="48" filterUnits="userSpaceOnUse" color-interpolation-filters="sRGB">
<feFlood flood-opacity="0" result="BackgroundImageFix"/>
<feColorMatrix in="SourceAlpha" type="matrix" values="0 0 0 0 0 0 0 0 0 0 0 0 0 0 0 0 0 0 127 0" result="hardAlpha"/>
<feOffset dx="-4" dy="4"/>
<feGaussianBlur stdDeviation="2"/>
<feComposite in2="hardAlpha" operator="out"/>
<feColorMatrix type="matrix" values="0 0 0 0 0.121569 0 0 0 0 0.121569 0 0 0 0 0.121569 0 0 0 0.25 0"/>
<feBlend mode="normal" in2="BackgroundImageFix" result="effect1_dropShadow_36_186"/>
<feBlend mode="normal" in="SourceGraphic" in2="effect1_dropShadow_36_186" result="shape"/>
<feColorMatrix in="SourceAlpha" type="matrix" values="0 0 0 0 0 0 0 0 0 0 0 0 0 0 0 0 0 0 127 0" result="hardAlpha"/>
<feOffset dx="2" dy="2"/>
<feGaussianBlur stdDeviation="2"/>
<feComposite in2="hardAlpha" operator="arithmetic" k2="-1" k3="1"/>
<feColorMatrix type="matrix" values="0 0 0 0 1 0 0 0 0 1 0 0 0 0 1 0 0 0 0.15 0"/>
<feBlend mode="normal" in2="shape" result="effect2_innerShadow_36_186"/>
</filter>
<filter id="filter2_di_36_186" x="89" y="152" width="50" height="48" filterUnits="userSpaceOnUse" color-interpolation-filters="sRGB">
<feFlood flood-opacity="0" result="BackgroundImageFix"/>
<feColorMatrix in="SourceAlpha" type="matrix" values="0 0 0 0 0 0 0 0 0 0 0 0 0 0 0 0 0 0 127 0" result="hardAlpha"/>
<feOffset dx="-4" dy="4"/>
<feGaussianBlur stdDeviation="2"/>
<feComposite in2="hardAlpha" operator="out"/>
<feColorMatrix type="matrix" values="0 0 0 0 0.121569 0 0 0 0 0.121569 0 0 0 0 0.121569 0 0 0 0.25 0"/>
<feBlend mode="normal" in2="BackgroundImageFix" result="effect1_dropShadow_36_186"/>
<feBlend mode="normal" in="SourceGraphic" in2="effect1_dropShadow_36_186" result="shape"/>
<feColorMatrix in="SourceAlpha" type="matrix" values="0 0 0 0 0 0 0 0 0 0 0 0 0 0 0 0 0 0 127 0" result="hardAlpha"/>
<feOffset dx="2" dy="2"/>
<feGaussianBlur stdDeviation="2"/>
<feComposite in2="hardAlpha" operator="arithmetic" k2="-1" k3="1"/>
<feColorMatrix type="matrix" values="0 0 0 0 1 0 0 0 0 1 0 0 0 0 1 0 0 0 0.15 0"/>
<feBlend mode="normal" in2="shape" result="effect2_innerShadow_36_186"/>
</filter>
<filter id="filter3_di_36_186" x="95" y="98" width="50" height="48" filterUnits="userSpaceOnUse" color-interpolation-filters="sRGB">
<feFlood flood-opacity="0" result="BackgroundImageFix"/>
<feColorMatrix in="SourceAlpha" type="matrix" values="0 0 0 0 0 0 0 0 0 0 0 0 0 0 0 0 0 0 127 0" result="hardAlpha"/>
<feOffset dx="-4" dy="4"/>
<feGaussianBlur stdDeviation="2"/>
<feComposite in2="hardAlpha" operator="out"/>
<feColorMatrix type="matrix" values="0 0 0 0 0.121569 0 0 0 0 0.121569 0 0 0 0 0.121569 0 0 0 0.25 0"/>
<feBlend mode="normal" in2="BackgroundImageFix" result="effect1_dropShadow_36_186"/>
<feBlend mode="normal" in="SourceGraphic" in2="effect1_dropShadow_36_186" result="shape"/>
<feColorMatrix in="SourceAlpha" type="matrix" values="0 0 0 0 0 0 0 0 0 0 0 0 0 0 0 0 0 0 127 0" result="hardAlpha"/>
<feOffset dx="2" dy="2"/>
<feGaussianBlur stdDeviation="2"/>
<feComposite in2="hardAlpha" operator="arithmetic" k2="-1" k3="1"/>
<feColorMatrix type="matrix" values="0 0 0 0 1 0 0 0 0 1 0 0 0 0 1 0 0 0 0.15 0"/>
<feBlend mode="normal" in2="shape" result="effect2_innerShadow_36_186"/>
</filter>
<filter id="filter4_di_36_186" x="110" y="43" width="50" height="48" filterUnits="userSpaceOnUse" color-interpolation-filters="sRGB">
<feFlood flood-opacity="0" result="BackgroundImageFix"/>
<feColorMatrix in="SourceAlpha" type="matrix" values="0 0 0 0 0 0 0 0 0 0 0 0 0 0 0 0 0 0 127 0" result="hardAlpha"/>
<feOffset dx="-4" dy="4"/>
<feGaussianBlur stdDeviation="2"/>
<feComposite in2="hardAlpha" operator="out"/>
<feColorMatrix type="matrix" values="0 0 0 0 0.121569 0 0 0 0 0.121569 0 0 0 0 0.121569 0 0 0 0.25 0"/>
<feBlend mode="normal" in2="BackgroundImageFix" result="effect1_dropShadow_36_186"/>
<feBlend mode="normal" in="SourceGraphic" in2="effect1_dropShadow_36_186" result="shape"/>
<feColorMatrix in="SourceAlpha" type="matrix" values="0 0 0 0 0 0 0 0 0 0 0 0 0 0 0 0 0 0 127 0" result="hardAlpha"/>
<feOffset dx="2" dy="2"/>
<feGaussianBlur stdDeviation="2"/>
<feComposite in2="hardAlpha" operator="arithmetic" k2="-1" k3="1"/>
<feColorMatrix type="matrix" values="0 0 0 0 1 0 0 0 0 1 0 0 0 0 1 0 0 0 0.15 0"/>
<feBlend mode="normal" in2="shape" result="effect2_innerShadow_36_186"/>
</filter>
<filter id="filter5_di_36_186" x="78" y="0" width="50" height="48" filterUnits="userSpaceOnUse" color-interpolation-filters="sRGB">
<feFlood flood-opacity="0" result="BackgroundImageFix"/>
<feColorMatrix in="SourceAlpha" type="matrix" values="0 0 0 0 0 0 0 0 0 0 0 0 0 0 0 0 0 0 127 0" result="hardAlpha"/>
<feOffset dx="-4" dy="4"/>
<feGaussianBlur stdDeviation="2"/>
<feComposite in2="hardAlpha" operator="out"/>
<feColorMatrix type="matrix" values="0 0 0 0 0.121569 0 0 0 0 0.121569 0 0 0 0 0.121569 0 0 0 0.25 0"/>
<feBlend mode="normal" in2="BackgroundImageFix" result="effect1_dropShadow_36_186"/>
<feBlend mode="normal" in="SourceGraphic" in2="effect1_dropShadow_36_186" result="shape"/>
<feColorMatrix in="SourceAlpha" type="matrix" values="0 0 0 0 0 0 0 0 0 0 0 0 0 0 0 0 0 0 127 0" result="hardAlpha"/>
<feOffset dx="2" dy="2"/>
<feGaussianBlur stdDeviation="2"/>
<feComposite in2="hardAlpha" operator="arithmetic" k2="-1" k3="1"/>
<feColorMatrix type="matrix" values="0 0 0 0 1 0 0 0 0 1 0 0 0 0 1 0 0 0 0.15 0"/>
<feBlend mode="normal" in2="shape" result="effect2_innerShadow_36_186"/>
</filter>
<filter id="filter6_di_36_186" x="0" y="143" width="50" height="48" filterUnits="userSpaceOnUse" color-interpolation-filters="sRGB">
<feFlood flood-opacity="0" result="BackgroundImageFix"/>
<feColorMatrix in="SourceAlpha" type="matrix" values="0 0 0 0 0 0 0 0 0 0 0 0 0 0 0 0 0 0 127 0" result="hardAlpha"/>
<feOffset dx="-4" dy="4"/>
<feGaussianBlur stdDeviation="2"/>
<feComposite in2="hardAlpha" operator="out"/>
<feColorMatrix type="matrix" values="0 0 0 0 0.121569 0 0 0 0 0.121569 0 0 0 0 0.121569 0 0 0 0.25 0"/>
<feBlend mode="normal" in2="BackgroundImageFix" result="effect1_dropShadow_36_186"/>
<feBlend mode="normal" in="SourceGraphic" in2="effect1_dropShadow_36_186" result="shape"/>
<feColorMatrix in="SourceAlpha" type="matrix" values="0 0 0 0 0 0 0 0 0 0 0 0 0 0 0 0 0 0 127 0" result="hardAlpha"/>
<feOffset dx="2" dy="2"/>
<feGaussianBlur stdDeviation="2"/>
<feComposite in2="hardAlpha" operator="arithmetic" k2="-1" k3="1"/>
<feColorMatrix type="matrix" values="0 0 0 0 1 0 0 0 0 1 0 0 0 0 1 0 0 0 0.15 0"/>
<feBlend mode="normal" in2="shape" result="effect2_innerShadow_36_186"/>
</filter>
<filter id="filter7_di_36_186" x="11" y="73" width="50" height="48" filterUnits="userSpaceOnUse" color-interpolation-filters="sRGB">
<feFlood flood-opacity="0" result="BackgroundImageFix"/>
<feColorMatrix in="SourceAlpha" type="matrix" values="0 0 0 0 0 0 0 0 0 0 0 0 0 0 0 0 0 0 127 0" result="hardAlpha"/>
<feOffset dx="-4" dy="4"/>
<feGaussianBlur stdDeviation="2"/>
<feComposite in2="hardAlpha" operator="out"/>
<feColorMatrix type="matrix" values="0 0 0 0 0.121569 0 0 0 0 0.121569 0 0 0 0 0.121569 0 0 0 0.25 0"/>
<feBlend mode="normal" in2="BackgroundImageFix" result="effect1_dropShadow_36_186"/>
<feBlend mode="normal" in="SourceGraphic" in2="effect1_dropShadow_36_186" result="shape"/>
<feColorMatrix in="SourceAlpha" type="matrix" values="0 0 0 0 0 0 0 0 0 0 0 0 0 0 0 0 0 0 127 0" result="hardAlpha"/>
<feOffset dx="2" dy="2"/>
<feGaussianBlur stdDeviation="2"/>
<feComposite in2="hardAlpha" operator="arithmetic" k2="-1" k3="1"/>
<feColorMatrix type="matrix" values="0 0 0 0 1 0 0 0 0 1 0 0 0 0 1 0 0 0 0.15 0"/>
<feBlend mode="normal" in2="shape" result="effect2_innerShadow_36_186"/>
</filter>
<filter id="filter8_di_36_186" x="145" y="91" width="50" height="48" filterUnits="userSpaceOnUse" color-interpolation-filters="sRGB">
<feFlood flood-opacity="0" result="BackgroundImageFix"/>
<feColorMatrix in="SourceAlpha" type="matrix" values="0 0 0 0 0 0 0 0 0 0 0 0 0 0 0 0 0 0 127 0" result="hardAlpha"/>
<feOffset dx="-4" dy="4"/>
<feGaussianBlur stdDeviation="2"/>
<feComposite in2="hardAlpha" operator="out"/>
<feColorMatrix type="matrix" values="0 0 0 0 0.121569 0 0 0 0 0.121569 0 0 0 0 0.121569 0 0 0 0.25 0"/>
<feBlend mode="normal" in2="BackgroundImageFix" result="effect1_dropShadow_36_186"/>
<feBlend mode="normal" in="SourceGraphic" in2="effect1_dropShadow_36_186" result="shape"/>
<feColorMatrix in="SourceAlpha" type="matrix" values="0 0 0 0 0 0 0 0 0 0 0 0 0 0 0 0 0 0 127 0" result="hardAlpha"/>
<feOffset dx="2" dy="2"/>
<feGaussianBlur stdDeviation="2"/>
<feComposite in2="hardAlpha" operator="arithmetic" k2="-1" k3="1"/>
<feColorMatrix type="matrix" values="0 0 0 0 1 0 0 0 0 1 0 0 0 0 1 0 0 0 0.15 0"/>
<feBlend mode="normal" in2="shape" result="effect2_innerShadow_36_186"/>
</filter>
<filter id="filter9_di_36_186" x="47" y="119" width="50" height="48" filterUnits="userSpaceOnUse" color-interpolation-filters="sRGB">
<feFlood flood-opacity="0" result="BackgroundImageFix"/>
<feColorMatrix in="SourceAlpha" type="matrix" values="0 0 0 0 0 0 0 0 0 0 0 0 0 0 0 0 0 0 127 0" result="hardAlpha"/>
<feOffset dx="-4" dy="4"/>
<feGaussianBlur stdDeviation="2"/>
<feComposite in2="hardAlpha" operator="out"/>
<feColorMatrix type="matrix" values="0 0 0 0 0.121569 0 0 0 0 0.121569 0 0 0 0 0.121569 0 0 0 0.25 0"/>
<feBlend mode="normal" in2="BackgroundImageFix" result="effect1_dropShadow_36_186"/>
<feBlend mode="normal" in="SourceGraphic" in2="effect1_dropShadow_36_186" result="shape"/>
<feColorMatrix in="SourceAlpha" type="matrix" values="0 0 0 0 0 0 0 0 0 0 0 0 0 0 0 0 0 0 127 0" result="hardAlpha"/>
<feOffset dx="2" dy="2"/>
<feGaussianBlur stdDeviation="2"/>
<feComposite in2="hardAlpha" operator="arithmetic" k2="-1" k3="1"/>
<feColorMatrix type="matrix" values="0 0 0 0 1 0 0 0 0 1 0 0 0 0 1 0 0 0 0.15 0"/>
<feBlend mode="normal" in2="shape" result="effect2_innerShadow_36_186"/>
</filter>
</defs>
</svg>
